<?xml version="1.0" standalone="yes"?>
<svg xmlns="http://www.w3.org/2000/svg" width="512" height="512">
<path style="fill:#010304; stroke:none;" d="M0 0L0 512L299 512L299 511C230.262 508.041 189.405 425.747 212.064 366C217.318 352.147 225.39 339.979 235.285 329.015C239.879 323.925 249.718 319.201 250.852 311.996C253.795 293.302 251 271.943 251 253L251 132C251 87.502 239.436 9.43179 302 1L275 0L213 0L0 0z"/>
<path style="fill:#dbdad9; stroke:none;" d="M302 0.463745C236.429 12.0501 251 93.8154 251 142L251 256C251 273.673 253.579 293.553 250.852 310.999C249.618 318.892 237.756 325.165 232.729 331.001C221.656 343.858 213.232 358.515 208.884 375C188.835 451.012 254.952 524.621 333 510.916C399.876 499.172 439.608 427.031 415.189 364C410.171 351.047 402.698 338.957 392.985 329C388.27 324.166 377.693 318.088 377.059 310.985C375.216 290.346 377 268.729 377 248L377 121C377 98.0139 379.144 73.7523 375.561 51C370.118 16.4337 335.805 -5.50952 302 0.463745z"/>
<path style="fill:#010304; stroke:none;" d="M325 0L325 1C332.055 1.61597 338.936 4.4295 345 8.01468C386.251 32.4042 377 85.3058 377 126L377 252C377 271.454 373.932 293.747 377.148 312.91C378.248 319.465 389.48 326.312 393.961 331C403.477 340.956 410.722 353.144 415.575 366C438.064 425.583 397.738 508.003 329 511L329 512L512 512L512 0L325 0z"/>
<path style="fill:#fda635; stroke:none;" d="M120.723 37.0324C118.284 38.8839 117.564 43.4533 115.891 45.9992C112.031 51.8733 105.888 56.2332 99 57.7461C92.4403 59.187 86.6923 57.2903 81 54.0926C78.7008 52.801 75.1013 50.1353 72.6435 52.6227C69.7663 55.5344 73.4342 62.4583 73.5401 66C73.7232 72.1235 70.822 78.4953 66.8117 82.9846C62.962 87.2941 57.7588 90.6588 52 91.6713C49.3346 92.1399 43.889 91.0738 42.662 94.3171C41.1448 98.3279 46.4964 101.611 48.6721 104.09C52.598 108.561 55.8175 114.932 55.8194 121C55.8214 127.205 52.9142 133.44 48.8156 137.961C46.6406 140.359 41.1529 143.735 42.662 147.686C43.8715 150.853 49.3543 149.951 52 150.518C58.1107 151.826 63.5871 155.106 67.4707 160.015C71.1809 164.704 74.0033 170.904 73.4715 177C73.182 180.317 69.8922 186.578 72.6435 189.378C75.3572 192.139 79.5139 188.851 82 187.46C87.6185 184.316 93.6779 183.133 100 184.761C106.112 186.334 111.496 189.761 115.084 195.004C117.043 197.866 118.467 205.065 122.181 206.029C126.853 207.243 129.117 197.871 131.105 195.09C136.979 186.87 148.055 181.931 158 184.789C161.924 185.917 168.621 192.262 172.678 189.917C176.378 187.779 173.418 182.088 172.974 179C172.058 172.634 174.016 166.172 177.789 161.015C181.409 156.067 187.079 152.332 193 150.764C195.916 149.992 202.155 150.963 203.673 147.683C205.361 144.034 200.185 140.935 198.104 138.83C193.91 134.587 190.497 128.067 190.263 122C190.011 115.456 193.251 108.903 197.467 104.093C199.463 101.816 204.133 99.3725 204.133 95.9653C204.132 90.7086 195.296 92.1579 192 91.2106C181.775 88.2716 173.749 78.8017 172.924 68.1698C172.613 64.1531 176.888 54.4723 172.678 52.0857C168.444 49.6851 156.929 58.4779 151 58.2747C138.507 57.8465 132.333 48.9773 126.907 39.1481C125.679 36.9252 123.155 35.1863 120.723 37.0324z"/>
<path style="fill:#01818e; stroke:none;" d="M414.044 39.7423C407.755 42.305 407.621 51.8705 414.044 54.3966C420.363 56.8819 442.97 57.3055 448.891 53.9722C454.492 50.8197 453.819 42.1314 447.956 39.7423C441.213 36.9944 420.787 36.9944 414.044 39.7423z"/>
<path style="fill:#ef4b45; stroke:none;" d="M118 41L119 42L118 41M128 43L129 44L128 43z"/>
<path style="fill:#dbdad9; stroke:none;" d="M42 98L43 99L42 98z"/>
<path style="fill:#ef4b45; stroke:none;" d="M199 101L200 102L199 101z"/>
<path style="fill:#01818e; stroke:none;" d="M413.109 103.028C407.95 105.932 407.98 113.934 413.109 116.821C418.243 119.711 436.752 119.764 441.867 116.821C446.904 113.923 446.966 106.036 441.891 103.179C436.85 100.341 418.162 100.184 413.109 103.028z"/>
<path style="fill:#fda635; stroke:none;" d="M287 110L287 260C287 282.881 291.298 310.748 286 333L287 333C291.511 317.74 288 296.926 288 281L288 170L288 129C288 123.113 289.292 115.462 287 110z"/>
<path style="fill:#ef4b45; stroke:none;" d="M288 110L288 260L288 307C288 313.769 289.432 322.401 287.682 328.956C286.497 333.396 281.589 334.407 278 336.323C271.793 339.637 265.982 344.047 261.015 349.015C243.396 366.633 235.976 392.695 240.808 417C253.431 480.489 339.929 497.697 375.91 444C381.314 435.936 385.296 426.538 387.192 417C392.156 392.032 384.135 365.917 365.996 348.015C360.48 342.57 342.257 335.869 340.318 328.895C338.518 322.422 340 313.703 340 307L340 261L340 110L288 110M178 159L179 160L178 159z"/>
<path style="fill:#01818e; stroke:none;" d="M415.043 164.653C407.549 167.146 407.549 177.854 415.043 180.347C425.489 183.823 441.018 181 452 181C456.334 181 461.94 181.847 465.891 179.682C472.236 176.205 470.6 166.532 463.985 164.573C454.048 161.63 440.336 164 430 164C425.294 164 419.566 163.148 415.043 164.653z"/>
<path style="fill:#dbdad9; stroke:none;" d="M72 168L73 169L72 168z"/>
<path style="fill:#ef4b45; stroke:none;" d="M172 174L173 175L172 174z"/>
<path style="fill:#dbdad9; stroke:none;" d="M107 187L108 188L107 187z"/>
<path style="fill:#ef4b45; stroke:none;" d="M110 189L111 190L110 189z"/>
<path style="fill:#dbdad9; stroke:none;" d="M111 190L112 191L111 190z"/>
<path style="fill:#ef4b45; stroke:none;" d="M132 192L133 193L132 192M114 193L115 194L114 193z"/>
<path style="fill:#dbdad9; stroke:none;" d="M117 198L118 199L117 198z"/>
<path style="fill:#01818e; stroke:none;" d="M414.044 227.742C408.181 230.131 407.508 238.82 413.109 241.972C418.225 244.852 435.553 244.459 440.956 242.258C446.771 239.888 447.347 231.333 441.867 228.179C436.685 225.197 419.541 225.502 414.044 227.742M413.109 291.028C407.508 294.18 408.181 302.869 414.044 305.258C420.401 307.848 444.239 308.439 449.772 304.258C454.462 300.713 453.445 292.762 447.956 290.603C441.637 288.118 419.03 287.695 413.109 291.028z"/>
<path style="fill:#fda635; stroke:none;" d="M284 333L285 334L284 333M344 333L345 334L344 333M281 334L282 335L281 334M346 334L347 335L346 334M279 335L280 336L279 335M348 335L349 336L348 335M277 336L278 337L277 336M350 336L351 337L350 336M274 338L275 339L274 338M353 338L354 339L353 338M272 339L273 340L272 339M271 340L272 341L271 340M268 342L269 343L268 342M359 342L360 343L359 342M267 343L268 344L267 343M262 347L263 348L262 347M261 348L262 349L261 348M260 349L261 350L260 349M259 350L260 351L259 350M255 355L256 356L255 355M372 355L373 356L372 355M254 356L255 357L254 356M252 359L253 360L252 359M375 359L376 360L375 359M250 362L251 363L250 362M377 362L378 363L377 362M248 365L249 366L248 365M247 367L248 368L247 367M246 369L247 370L246 369M245 371L246 372L245 371M244 374L245 375L244 374M383 374L384 375L383 374M243 376L244 377L243 376M384 377L385 378L384 377M242.333 379.667L242.667 380.333L242.333 379.667M385 380L386 381L385 380M241 383L242 384L241 383M386 383L387 384L386 383M240.333 387.667L240.667 388.333L240.333 387.667M387 388L388 389L387 388M239 393L239 399L240 399L239 393M388 395L388 398L389 398L388 395M239 406L239 411L240 411L239 406M388 406L388 409L389 409L388 406M240.333 415.667L240.667 416.333L240.333 415.667M387 415L388 416L387 415M241 420L242 421L241 420M386 420L387 421L386 420M242.333 423.667L242.667 424.333L242.333 423.667M385 423L386 424L385 423M243.333 426.667L243.667 427.333L243.333 426.667M384 426L385 427L384 426M244 429L245 430L244 429M383 429L384 430L383 429M245 431L246 432L245 431M382 431L383 432L382 431M246 434L247 435L246 434M247 436L248 437L247 436M249 439L250 440L249 439M378 439L379 440L378 439M250 441L251 442L250 441M252 444L253 445L252 444M375 444L376 445L375 444M255 448L256 449L255 448M372 448L373 449L372 448M256 449L257 450L256 449M371 449L372 450L371 449M265 458L266 459L265 458M266 459L267 460L266 459M361 459L362 460L361 459M267 460L268 461L267 460M360 460L361 461L360 460M270 462L271 463L270 462M271 463L272 464L271 463M356 463L357 464L356 463M273 464L274 465L273 464M274 465L275 466L274 465M276 466L277 467L276 466M351 466L352 467L351 466M278 467L279 468L278 467M280 468L281 469L280 468M286 471L287 472L286 471M341 471L342 472L341 471M338 472L339 473L338 472M335 473L336 474L335 473M295 474L296 475L295 474M332 474L333 475L332 474M299.667 475.333L300.333 475.667L299.667 475.333M327 475L328 476L327 475M306 476L306 477L309 477L306 476M319 476L319 477L322 477L319 476z"/>
</svg>
